<svg xmlns="http://www.w3.org/2000/svg" width="782.7418212890625" height="190.6775665283203" viewBox="-439.72357177734375 -127.92798614501953 782.7418212890625 190.6775665283203"><title>Neo4j Graph Visualization</title><desc>Created using Neo4j (http://www.neo4j.com/)</desc><g class="layer relationships"><g class="relationship" transform="translate(-410.723606541702 -42.428486304361144) rotate(385.8097753390685)"><path class="b-outline" fill="#A5ABB6" stroke="none" d="M 25 0.5 L 56.98888780046214 0.5 L 56.98888780046214 -0.5 L 25 -0.5 Z M 96.78185655046214 0.5 L 128.77074435092428 0.5 L 128.77074435092428 3.5 L 135.77074435092428 0 L 128.77074435092428 -3.5 L 128.77074435092428 -0.5 L 96.78185655046214 -0.5 Z"/><text text-anchor="middle" pointer-events="none" font-size="8px" fill="#000000" x="76.88537217546214" y="3" font-family="Helvetica Neue, Helvetica, Arial, sans-serif">subCatOf</text></g><g class="relationship" transform="translate(-265.9906277423654 27.568635686625285) rotate(362.2345255431759)"><path class="b-outline" fill="#A5ABB6" stroke="none" d="M 24.018736134675446,6.953439040707552 L 24.277555179777966,5.987513214418485 A 164.077196472387 164.077196472387 0 0 0 49.9569153190603,10.717302442216834 L 49.854604068406864,11.71205487774526 A 165.077196472387 165.077196472387 0 0 1 24.018736134675446,6.953439040707552 Z M 79.47250220409539,12.08684134756922 L 79.39539498406597,11.089818541100215 A 164.077196472387 164.077196472387 0 0 0 105.18621546956001,7.011335736505435 L 104.48333247663595,4.094838608398137 L 112.10852260063105,5.8573582743671775 L 106.12339279345875,10.899998573981833 L 105.42050980053469,7.983501445874534 A 165.077196472387 165.077196472387 0 0 1 79.47250220409539,12.08684134756922"/><text text-anchor="middle" pointer-events="none" font-size="8px" fill="#000000" x="64.66145654798159" y="15.065133223512333" font-family="Helvetica Neue, Helvetica, Arial, sans-serif">isInput</text></g><g class="relationship" transform="translate(3.2960079052858546 33.749565016226015) rotate(180.37149200283977)"><path class="b-outline" fill="#A5ABB6" stroke="none" d="M 25 0.5 L 52.208996631551685 0.5 L 52.208996631551685 -0.5 L 25 -0.5 Z M 73.77149663155168 0.5 L 100.98049326310337 0.5 L 100.98049326310337 3.5 L 107.98049326310337 0 L 100.98049326310337 -3.5 L 100.98049326310337 -0.5 L 73.77149663155168 -0.5 Z"/><text text-anchor="middle" pointer-events="none" font-size="8px" fill="#000000" x="62.990246631551685" y="3" transform="rotate(180 62.990246631551685 0)" font-family="Helvetica Neue, Helvetica, Arial, sans-serif">runs</text></g><g class="relationship" transform="translate(133.6178741700146 29.384486092328785) rotate(538.0816179100198)"><path class="b-outline" fill="#A5ABB6" stroke="none" d="M 25 0.5 L 43.79903703071649 0.5 L 43.79903703071649 -0.5 L 25 -0.5 Z M 79.59591203071649 0.5 L 98.39494906143298 0.5 L 98.39494906143298 3.5 L 105.39494906143298 0 L 98.39494906143298 -3.5 L 98.39494906143298 -0.5 L 79.59591203071649 -0.5 Z"/><text text-anchor="middle" pointer-events="none" font-size="8px" fill="#000000" x="61.69747453071649" y="3" transform="rotate(180 61.69747453071649 0)" font-family="Helvetica Neue, Helvetica, Arial, sans-serif">contains</text></g><g class="relationship" transform="translate(133.6178741700146 29.384486092328785) rotate(324.1329367895204)"><path class="b-outline" fill="#A5ABB6" stroke="none" d="M 25 0.5 L 83.96713819297952 0.5 L 83.96713819297952 -0.5 L 25 -0.5 Z M 121.98666944297952 0.5 L 180.95380763595904 0.5 L 180.95380763595904 3.5 L 187.95380763595904 0 L 180.95380763595904 -3.5 L 180.95380763595904 -0.5 L 121.98666944297952 -0.5 Z"/><text text-anchor="middle" pointer-events="none" font-size="8px" fill="#000000" x="102.97690381797952" y="3" font-family="Helvetica Neue, Helvetica, Arial, sans-serif">executes</text></g><g class="relationship" transform="translate(133.6178741700146 29.384486092328785) rotate(359.8588423336753)"><path class="b-outline" fill="#A5ABB6" stroke="none" d="M 25 0.5 L 67.69068466557464 0.5 L 67.69068466557464 -0.5 L 25 -0.5 Z M 105.71021591557464 0.5 L 148.40090058114927 0.5 L 148.40090058114927 3.5 L 155.40090058114927 0 L 148.40090058114927 -3.5 L 148.40090058114927 -0.5 L 105.71021591557464 -0.5 Z"/><text text-anchor="middle" pointer-events="none" font-size="8px" fill="#000000" x="86.70045029057464" y="3" font-family="Helvetica Neue, Helvetica, Arial, sans-serif">executes</text></g><g class="relationship" transform="translate(-129.68169017578646 32.88735764124989) rotate(182.2345255431759)"><path class="b-outline" fill="#A5ABB6" stroke="none" d="M 24.018736134675446,6.953439040707552 L 24.277555179777966,5.987513214418485 A 164.077196472387 164.077196472387 0 0 0 46.87450049149586,10.370798855625935 L 46.75340287141489,11.363439458468036 A 165.077196472387 165.077196472387 0 0 1 24.018736134675446,6.953439040707552 Z M 82.58153178382372,11.816810521261289 L 82.48559077180991,10.821423499940579 A 164.077196472387 164.077196472387 0 0 0 105.18621546956001,7.011335736505435 L 104.48333247663595,4.094838608398137 L 112.10852260063105,5.8573582743671775 L 106.12339279345875,10.899998573981833 L 105.42050980053469,7.983501445874534 A 165.077196472387 165.077196472387 0 0 1 82.58153178382372,11.816810521261289"/><text text-anchor="middle" pointer-events="none" font-size="8px" fill="#000000" x="64.66145654798159" y="15.065133223512333" transform="rotate(180 64.66145654798159 12.065133223512333)" font-family="Helvetica Neue, Helvetica, Arial, sans-serif">isOutput</text></g><g class="relationship" transform="translate(-410.723606541702 -42.428486304361144) rotate(340.0205377600678)"><path class="b-outline" fill="#A5ABB6" stroke="none" d="M 25 0.5 L 54.15036841729999 0.5 L 54.15036841729999 -0.5 L 25 -0.5 Z M 93.94333716729999 0.5 L 123.09370558459997 0.5 L 123.09370558459997 3.5 L 130.09370558459997 0 L 123.09370558459997 -3.5 L 123.09370558459997 -0.5 L 93.94333716729999 -0.5 Z"/><text text-anchor="middle" pointer-events="none" font-size="8px" fill="#000000" x="74.04685279229999" y="3" font-family="Helvetica Neue, Helvetica, Arial, sans-serif">subCatOf</text></g><g class="relationship" transform="translate(-125.78528859177635 -98.92799436126037) rotate(538.556751141431)"><path class="b-outline" fill="#A5ABB6" stroke="none" d="M 24.018736134675446,-6.953439040707552 L 24.277555179777966,-5.987513214418485 A 169.620544200452 169.620544200452 0 0 1 48.27569529155038,-10.59546634289353 L 48.15835757599372,-11.58855841340258 A 170.620544200452 170.620544200452 0 0 0 24.018736134675446,-6.953439040707552 Z M 83.98758975680107,-12.03321514998504 L 83.89493381450892,-11.037516964610603 A 169.620544200452 169.620544200452 0 0 1 108.00003860810045,-7.026546539831464 L 107.29573495780326,-4.110392159799767 L 114.92178276989061,-5.869197085809962 L 108.93911014183004,-10.914752379873725 L 108.23480649153285,-7.998597999842029 A 170.620544200452 170.620544200452 0 0 0 83.98758975680107,-12.03321514998504"/><text text-anchor="middle" pointer-events="none" font-size="8px" fill="#000000" x="66.06747327100267" y="-9.254093703956272" transform="rotate(180 66.06747327100267 -12.254093703956272)" font-family="Helvetica Neue, Helvetica, Arial, sans-serif">isOutput</text></g><g class="relationship" transform="translate(6.374091925130276 -98.2063027629545) rotate(180.31287579830564)"><path class="b-outline" fill="#A5ABB6" stroke="none" d="M 25 0.5 L 51.79942549854417 0.5 L 51.79942549854417 -0.5 L 25 -0.5 Z M 73.36192549854417 0.5 L 100.16135099708833 0.5 L 100.16135099708833 3.5 L 107.16135099708833 0 L 100.16135099708833 -3.5 L 100.16135099708833 -0.5 L 73.36192549854417 -0.5 Z"/><text text-anchor="middle" pointer-events="none" font-size="8px" fill="#000000" x="62.58067549854417" y="3" transform="rotate(180 62.58067549854417 0)" font-family="Helvetica Neue, Helvetica, Arial, sans-serif">runs</text></g><g class="relationship" transform="translate(129.69821801446997 -97.2162302608393) rotate(180.45997290962043)"><path class="b-outline" fill="#A5ABB6" stroke="none" d="M 25 0.5 L 40.26561264118599 0.5 L 40.26561264118599 -0.5 L 25 -0.5 Z M 76.06248764118598 0.5 L 91.32810028237198 0.5 L 91.32810028237198 3.5 L 98.32810028237198 0 L 91.32810028237198 -3.5 L 91.32810028237198 -0.5 L 76.06248764118598 -0.5 Z"/><text text-anchor="middle" pointer-events="none" font-size="8px" fill="#000000" x="58.16405014118599" y="3" transform="rotate(180 58.16405014118599 0)" font-family="Helvetica Neue, Helvetica, Arial, sans-serif">contains</text></g><g class="relationship" transform="translate(129.69821801446997 -97.2162302608393) rotate(360.5939552450504)"><path class="b-outline" fill="#A5ABB6" stroke="none" d="M 25 0.5 L 65.7414070617667 0.5 L 65.7414070617667 -0.5 L 25 -0.5 Z M 103.7609383117667 0.5 L 144.5023453735334 0.5 L 144.5023453735334 3.5 L 151.5023453735334 0 L 144.5023453735334 -3.5 L 144.5023453735334 -0.5 L 103.7609383117667 -0.5 Z"/><text text-anchor="middle" pointer-events="none" font-size="8px" fill="#000000" x="84.7511726867667" y="3" font-family="Helvetica Neue, Helvetica, Arial, sans-serif">executes</text></g><g class="relationship" transform="translate(-264.9641911137558 -95.42141343681891) rotate(358.55675114143105)"><path class="b-outline" fill="#A5ABB6" stroke="none" d="M 24.018736134675446,-6.953439040707552 L 24.277555179777966,-5.987513214418485 A 169.620544200452 169.620544200452 0 0 1 51.359606054749555,-10.931278082361416 L 51.260449572944594,-11.92634993510174 A 170.620544200452 170.620544200452 0 0 0 24.018736134675446,-6.953439040707552 Z M 80.8780701804427,-12.293917804215113 L 80.80363900464002,-11.296691651294623 A 169.620544200452 169.620544200452 0 0 1 108.00003860810045,-7.026546539831464 L 107.29573495780326,-4.110392159799767 L 114.92178276989061,-5.869197085809962 L 108.93911014183004,-10.914752379873725 L 108.23480649153285,-7.998597999842029 A 170.620544200452 170.620544200452 0 0 0 80.8780701804427,-12.293917804215113"/><text text-anchor="middle" pointer-events="none" font-size="8px" fill="#000000" x="66.06747327100267" y="-9.254093703956272" font-family="Helvetica Neue, Helvetica, Arial, sans-serif">isInput</text></g></g><g class="layer nodes"><g class="node" aria-label="graph-node4118418" transform="translate(-410.723606541702,-42.428486304361144)"><circle class="b-outline" cx="0" cy="0" r="25" fill="#57C7E3" stroke="#23b3d7" stroke-width="2px"/><text class="caption" text-anchor="middle" pointer-events="none" x="0" y="-10" font-size="10px" fill="#2A2C34" font-family="Helvetica Neue, Helvetica, Arial, sans-serif"> a</text><text class="caption" text-anchor="middle" pointer-events="none" x="0" y="0" font-size="10px" fill="#2A2C34" font-family="Helvetica Neue, Helvetica, Arial, sans-serif"> dataset</text><text class="caption" text-anchor="middle" pointer-events="none" x="0" y="10" font-size="10px" fill="#2A2C34" font-family="Helvetica Neue, Helvetica, Arial, sans-serif"> on</text><text class="caption" text-anchor="middle" pointer-events="none" x="0" y="20" font-size="10px" fill="#2A2C34" font-family="Helvetica Neue, Helvetica, Arial, sans-serif">mu…</text></g><g class="node" aria-label="graph-node3615732" transform="translate(-265.9906277423654,27.568635686625285)"><circle class="b-outline" cx="0" cy="0" r="25" fill="#569480" stroke="#447666" stroke-width="2px"/><text class="caption" text-anchor="middle" pointer-events="none" x="0" y="0" font-size="10px" fill="#FFFFFF" font-family="Helvetica Neue, Helvetica, Arial, sans-serif"> Logically</text><text class="caption" text-anchor="middle" pointer-events="none" x="0" y="10" font-size="10px" fill="#FFFFFF" font-family="Helvetica Neue, Helvetica, Arial, sans-serif"> at Factif</text></g><g class="node" aria-label="graph-node2587628" transform="translate(-129.68169017578646,32.88735764124989)"><circle class="b-outline" cx="0" cy="0" r="25" fill="#DA7194" stroke="#cc3c6c" stroke-width="2px"/><text class="caption" text-anchor="middle" pointer-events="none" x="0" y="0" font-size="10px" fill="#FFFFFF" font-family="Helvetica Neue, Helvetica, Arial, sans-serif"> Logically</text><text class="caption" text-anchor="middle" pointer-events="none" x="0" y="10" font-size="10px" fill="#FFFFFF" font-family="Helvetica Neue, Helvetica, Arial, sans-serif"> at Factif</text></g><g class="node" aria-label="graph-node1559262" transform="translate(3.2960079052858546,33.749565016226015)"><circle class="b-outline" cx="0" cy="0" r="25" fill="#FFC454" stroke="#d7a013" stroke-width="2px"/><text class="caption" text-anchor="middle" pointer-events="none" x="0" y="5" font-size="10px" fill="#2A2C34" font-family="Helvetica Neue, Helvetica, Arial, sans-serif"> test</text></g><g class="node" aria-label="graph-node4115591" transform="translate(306.19107966688244,-95.3865559454328)"><circle class="b-outline" cx="0" cy="0" r="25" fill="#ECB5C9" stroke="#da7298" stroke-width="2px"/><text class="caption" text-anchor="middle" pointer-events="none" x="0" y="0" font-size="10px" fill="#2A2C34" font-family="Helvetica Neue, Helvetica, Arial, sans-serif"> Fact</text><text class="caption" text-anchor="middle" pointer-events="none" x="0" y="10" font-size="10px" fill="#2A2C34" font-family="Helvetica Neue, Helvetica, Arial, sans-serif"> Verific…</text></g><g class="node" aria-label="graph-node4116290" transform="translate(314.0182272662447,28.940038969264123)"><circle class="b-outline" cx="0" cy="0" r="25" fill="#ECB5C9" stroke="#da7298" stroke-width="2px"/><text class="caption" text-anchor="middle" pointer-events="none" x="0" y="0" font-size="10px" fill="#2A2C34" font-family="Helvetica Neue, Helvetica, Arial, sans-serif"> Visual</text><text class="caption" text-anchor="middle" pointer-events="none" x="0" y="10" font-size="10px" fill="#2A2C34" font-family="Helvetica Neue, Helvetica, Arial, sans-serif"> Entail…</text></g><g class="node" aria-label="graph-node3978525" transform="translate(-264.9641911137558,-95.42141343681891)"><circle class="b-outline" cx="0" cy="0" r="25" fill="#569480" stroke="#447666" stroke-width="2px"/><text class="caption" text-anchor="middle" pointer-events="none" x="0" y="-5" font-size="10px" fill="#FFFFFF" font-family="Helvetica Neue, Helvetica, Arial, sans-serif"> Team</text><text class="caption" text-anchor="middle" pointer-events="none" x="0" y="5" font-size="10px" fill="#FFFFFF" font-family="Helvetica Neue, Helvetica, Arial, sans-serif"> Yao at</text><text class="caption" text-anchor="middle" pointer-events="none" x="0" y="15" font-size="10px" fill="#FFFFFF" font-family="Helvetica Neue, Helvetica, Arial, sans-serif"> Fact…</text></g><g class="node" aria-label="graph-node2950110" transform="translate(-125.78528859177635,-98.92799436126037)"><circle class="b-outline" cx="0" cy="0" r="25" fill="#DA7194" stroke="#cc3c6c" stroke-width="2px"/><text class="caption" text-anchor="middle" pointer-events="none" x="0" y="-5" font-size="10px" fill="#FFFFFF" font-family="Helvetica Neue, Helvetica, Arial, sans-serif"> Team</text><text class="caption" text-anchor="middle" pointer-events="none" x="0" y="5" font-size="10px" fill="#FFFFFF" font-family="Helvetica Neue, Helvetica, Arial, sans-serif"> Yao at</text><text class="caption" text-anchor="middle" pointer-events="none" x="0" y="15" font-size="10px" fill="#FFFFFF" font-family="Helvetica Neue, Helvetica, Arial, sans-serif"> Fact…</text></g><g class="node" aria-label="graph-node1919967" transform="translate(6.374091925130276,-98.2063027629545)"><circle class="b-outline" cx="0" cy="0" r="25" fill="#FFC454" stroke="#d7a013" stroke-width="2px"/><text class="caption" text-anchor="middle" pointer-events="none" x="0" y="5" font-size="10px" fill="#2A2C34" font-family="Helvetica Neue, Helvetica, Arial, sans-serif"> test</text></g><g class="node" aria-label="graph-node893394" transform="translate(129.69821801446997,-97.2162302608393)"><circle class="b-outline" cx="0" cy="0" r="25" fill="#4C8EDA" stroke="#2870c2" stroke-width="2px"/><text class="caption" text-anchor="middle" pointer-events="none" x="0" y="-5" font-size="10px" fill="#FFFFFF" font-family="Helvetica Neue, Helvetica, Arial, sans-serif"> Team</text><text class="caption" text-anchor="middle" pointer-events="none" x="0" y="5" font-size="10px" fill="#FFFFFF" font-family="Helvetica Neue, Helvetica, Arial, sans-serif"> Yao at</text><text class="caption" text-anchor="middle" pointer-events="none" x="0" y="15" font-size="10px" fill="#FFFFFF" font-family="Helvetica Neue, Helvetica, Arial, sans-serif"> Fact…</text></g><g class="node" aria-label="graph-node530835" transform="translate(133.6178741700146,29.384486092328785)"><circle class="b-outline" cx="0" cy="0" r="25" fill="#4C8EDA" stroke="#2870c2" stroke-width="2px"/><text class="caption" text-anchor="middle" pointer-events="none" x="0" y="0" font-size="10px" fill="#FFFFFF" font-family="Helvetica Neue, Helvetica, Arial, sans-serif"> Logically</text><text class="caption" text-anchor="middle" pointer-events="none" x="0" y="10" font-size="10px" fill="#FFFFFF" font-family="Helvetica Neue, Helvetica, Arial, sans-serif"> at Factif</text></g></g></svg>